<svg xmlns="http://www.w3.org/2000/svg" width="1600" height="900" viewBox="0 0 1600 900">
<defs>
  <marker id="arrow" markerWidth="14" markerHeight="14" refX="10" refY="5" orient="auto" markerUnits="strokeWidth"><path d="M0,0 L10,5 L0,10 z" fill="#64748b"/></marker>
</defs>
<rect width="1600" height="900" fill="#0f172a"/>
<text x="80" y="86" text-anchor="start" font-size="46" font-weight="800" fill="#e2e8f0" font-family="Inter, Noto Sans SC, PingFang SC, Microsoft YaHei, sans-serif">Fan-out / Fan-in 流程</text>
<text x="80" y="126" text-anchor="start" font-size="20" font-weight="500" fill="#94a3b8" font-family="Inter, Noto Sans SC, PingFang SC, Microsoft YaHei, sans-serif">LangGraph 教程图解</text><rect x="650" y="180" width="300" height="110" rx="12" fill="#1e293b" stroke="#38bdf8" stroke-width="3"/><text x="800" y="228" text-anchor="middle" font-size="28" font-weight="700" fill="#e2e8f0" font-family="Inter, Noto Sans SC, PingFang SC, Microsoft YaHei, sans-serif">任务分发</text><line x1="800" y1="295" x2="340" y2="405" stroke="#64748b" stroke-width="4" marker-end="url(#arrow)"/><rect x="230" y="410" width="220" height="105" rx="12" fill="#1e293b" stroke="#e0a068" stroke-width="3"/><text x="340" y="458" text-anchor="middle" font-size="28" font-weight="700" fill="#e2e8f0" font-family="Inter, Noto Sans SC, PingFang SC, Microsoft YaHei, sans-serif">查财报</text><line x1="340" y1="520" x2="800" y2="625" stroke="#64748b" stroke-width="4" marker-end="url(#arrow)"/><line x1="800" y1="295" x2="670" y2="405" stroke="#64748b" stroke-width="4" marker-end="url(#arrow)"/><rect x="560" y="410" width="220" height="105" rx="12" fill="#1e293b" stroke="#e0a068" stroke-width="3"/><text x="670" y="458" text-anchor="middle" font-size="28" font-weight="700" fill="#e2e8f0" font-family="Inter, Noto Sans SC, PingFang SC, Microsoft YaHei, sans-serif">查新闻</text><line x1="670" y1="520" x2="800" y2="625" stroke="#64748b" stroke-width="4" marker-end="url(#arrow)"/><line x1="800" y1="295" x2="1000" y2="405" stroke="#64748b" stroke-width="4" marker-end="url(#arrow)"/><rect x="890" y="410" width="220" height="105" rx="12" fill="#1e293b" stroke="#e0a068" stroke-width="3"/><text x="1000" y="458" text-anchor="middle" font-size="28" font-weight="700" fill="#e2e8f0" font-family="Inter, Noto Sans SC, PingFang SC, Microsoft YaHei, sans-serif">查竞品</text><line x1="1000" y1="520" x2="800" y2="625" stroke="#64748b" stroke-width="4" marker-end="url(#arrow)"/><line x1="800" y1="295" x2="1330" y2="405" stroke="#64748b" stroke-width="4" marker-end="url(#arrow)"/><rect x="1220" y="410" width="220" height="105" rx="12" fill="#1e293b" stroke="#e0a068" stroke-width="3"/><text x="1330" y="458" text-anchor="middle" font-size="28" font-weight="700" fill="#e2e8f0" font-family="Inter, Noto Sans SC, PingFang SC, Microsoft YaHei, sans-serif">查专家</text><line x1="1330" y1="520" x2="800" y2="625" stroke="#64748b" stroke-width="4" marker-end="url(#arrow)"/><rect x="650" y="635" width="300" height="110" rx="12" fill="#1e293b" stroke="#9ece6a" stroke-width="3"/><text x="800" y="683" text-anchor="middle" font-size="28" font-weight="700" fill="#e2e8f0" font-family="Inter, Noto Sans SC, PingFang SC, Microsoft YaHei, sans-serif">汇总报告</text>
</svg>